<svg width="100" height="600" xmlns="http://www.w3.org/2000/svg"><g fill="none" fill-rule="evenodd"><path d="M0 0h100v600H0z"/><circle fill="#353535" transform="matrix(0 1 1 0 -453 453)" cx="71" cy="524" r="8"/><circle fill="#353535" transform="matrix(0 1 1 0 -495 495)" cx="29" cy="524" r="8"/><circle fill="#353535" transform="matrix(0 1 1 0 -479 479)" cx="71" cy="550" r="8"/><circle fill="#353535" transform="matrix(0 1 1 0 -521 521)" cx="29" cy="550" r="8"/><circle fill="#353535" transform="matrix(0 1 1 0 -505 505)" cx="71" cy="576" r="8"/><circle fill="#353535" transform="matrix(0 1 1 0 -547 547)" cx="29" cy="576" r="8"/><circle fill="#353535" transform="matrix(0 -1 -1 0 548 548)" cx="74" cy="474" r="8"/><circle fill="#353535" transform="matrix(0 -1 -1 0 500 500)" cx="74" cy="426" r="8"/><circle fill="#353535" transform="matrix(0 -1 -1 0 500 500)" cx="50" cy="450" r="8"/><circle fill="#353535" transform="matrix(0 -1 -1 0 500 500)" cx="26" cy="474" r="8"/><circle fill="#353535" transform="matrix(0 -1 -1 0 452 452)" cx="26" cy="426" r="8"/><circle fill="#353535" transform="matrix(0 -1 -1 0 440 440)" cx="70" cy="370" r="8"/><circle fill="#353535" transform="matrix(0 -1 -1 0 400 400)" cx="70" cy="330" r="8"/><circle fill="#353535" transform="matrix(0 -1 -1 0 400 400)" cx="30" cy="370" r="8"/><circle fill="#353535" transform="matrix(0 -1 -1 0 360 360)" cx="30" cy="330" r="8"/><circle fill="#353535" transform="matrix(0 -1 -1 0 348 348)" cx="74" cy="274" r="8"/><circle fill="#353535" transform="matrix(0 -1 -1 0 300 300)" cx="50" cy="250" r="8"/><circle fill="#353535" transform="matrix(0 -1 -1 0 252 252)" cx="26" cy="226" r="8"/><circle fill="#353535" transform="matrix(0 -1 -1 0 200 200)" cx="70" cy="130" r="8"/><circle fill="#353535" transform="matrix(0 -1 -1 0 200 200)" cx="30" cy="170" r="8"/><circle fill="#353535" transform="matrix(0 -1 -1 0 100 100)" cx="50" cy="50" r="8"/></g></svg>