<?xml version="1.0" encoding="UTF-8"?>
<svg width="100px" height="600px" viewBox="0 0 100 600" version="1.1" xmlns="http://www.w3.org/2000/svg" xmlns:xlink="http://www.w3.org/1999/xlink">
    <!-- Generator: Sketch 48.2 (47327) - http://www.bohemiancoding.com/sketch -->
    <title>dice</title>
    <desc>Created with Sketch.</desc>
    <defs>
        <rect id="path-1" x="0" y="0" width="100" height="600"></rect>
    </defs>
    <g id="Page-1" stroke="none" stroke-width="1" fill="none" fill-rule="evenodd">
        <g id="dice">
            <g id="Rectangle">
                <use fill="#FFFDFA" fill-rule="evenodd" xlink:href="#path-1"></use>
                <rect stroke="#979797" stroke-width="1" x="0.5" y="0.5" width="99" height="599"></rect>
            </g>
            <circle id="Oval" fill="#353535" transform="translate(71.000000, 524.000000) scale(-1, 1) rotate(450.000000) translate(-71.000000, -524.000000) " cx="71" cy="524" r="8"></circle>
            <circle id="Oval-Copy-3" fill="#353535" transform="translate(29.000000, 524.000000) scale(-1, 1) rotate(450.000000) translate(-29.000000, -524.000000) " cx="29" cy="524" r="8"></circle>
            <circle id="Oval-Copy" fill="#353535" transform="translate(71.000000, 550.000000) scale(-1, 1) rotate(450.000000) translate(-71.000000, -550.000000) " cx="71" cy="550" r="8"></circle>
            <circle id="Oval-Copy-4" fill="#353535" transform="translate(29.000000, 550.000000) scale(-1, 1) rotate(450.000000) translate(-29.000000, -550.000000) " cx="29" cy="550" r="8"></circle>
            <circle id="Oval-Copy-2" fill="#353535" transform="translate(71.000000, 576.000000) scale(-1, 1) rotate(450.000000) translate(-71.000000, -576.000000) " cx="71" cy="576" r="8"></circle>
            <circle id="Oval-Copy-5" fill="#353535" transform="translate(29.000000, 576.000000) scale(-1, 1) rotate(450.000000) translate(-29.000000, -576.000000) " cx="29" cy="576" r="8"></circle>
            <circle id="Oval-Copy-6" fill="#353535" transform="translate(74.000000, 474.000000) scale(-1, 1) rotate(270.000000) translate(-74.000000, -474.000000) " cx="74" cy="474" r="8"></circle>
            <circle id="Oval-Copy-7" fill="#353535" transform="translate(74.000000, 426.000000) scale(-1, 1) rotate(270.000000) translate(-74.000000, -426.000000) " cx="74" cy="426" r="8"></circle>
            <circle id="Oval-Copy-14" fill="#353535" transform="translate(50.000000, 450.000000) scale(-1, 1) rotate(270.000000) translate(-50.000000, -450.000000) " cx="50" cy="450" r="8"></circle>
            <circle id="Oval-Copy-10" fill="#353535" transform="translate(26.000000, 474.000000) scale(-1, 1) rotate(270.000000) translate(-26.000000, -474.000000) " cx="26" cy="474" r="8"></circle>
            <circle id="Oval-Copy-11" fill="#353535" transform="translate(26.000000, 426.000000) scale(-1, 1) rotate(270.000000) translate(-26.000000, -426.000000) " cx="26" cy="426" r="8"></circle>
            <circle id="Oval-Copy-6" fill="#353535" transform="translate(70.000000, 370.000000) scale(-1, 1) rotate(270.000000) translate(-70.000000, -370.000000) " cx="70" cy="370" r="8"></circle>
            <circle id="Oval-Copy-7" fill="#353535" transform="translate(70.000000, 330.000000) scale(-1, 1) rotate(270.000000) translate(-70.000000, -330.000000) " cx="70" cy="330" r="8"></circle>
            <circle id="Oval-Copy-10" fill="#353535" transform="translate(30.000000, 370.000000) scale(-1, 1) rotate(270.000000) translate(-30.000000, -370.000000) " cx="30" cy="370" r="8"></circle>
            <circle id="Oval-Copy-11" fill="#353535" transform="translate(30.000000, 330.000000) scale(-1, 1) rotate(270.000000) translate(-30.000000, -330.000000) " cx="30" cy="330" r="8"></circle>
            <circle id="Oval-Copy-12" fill="#353535" transform="translate(74.000000, 274.000000) scale(-1, 1) rotate(270.000000) translate(-74.000000, -274.000000) " cx="74" cy="274" r="8"></circle>
            <circle id="Oval-Copy-17" fill="#353535" transform="translate(50.000000, 250.000000) scale(-1, 1) rotate(270.000000) translate(-50.000000, -250.000000) " cx="50" cy="250" r="8"></circle>
            <circle id="Oval-Copy-26" fill="#353535" transform="translate(26.000000, 226.000000) scale(-1, 1) rotate(270.000000) translate(-26.000000, -226.000000) " cx="26" cy="226" r="8"></circle>
            <circle id="Oval-Copy-23" fill="#353535" transform="translate(70.000000, 130.000000) scale(-1, 1) rotate(270.000000) translate(-70.000000, -130.000000) " cx="70" cy="130" r="8"></circle>
            <circle id="Oval-Copy-24" fill="#353535" transform="translate(30.000000, 170.000000) scale(-1, 1) rotate(270.000000) translate(-30.000000, -170.000000) " cx="30" cy="170" r="8"></circle>
            <circle id="Oval-Copy-16" fill="#353535" transform="translate(50.000000, 50.000000) scale(-1, 1) rotate(270.000000) translate(-50.000000, -50.000000) " cx="50" cy="50" r="8"></circle>
        </g>
    </g>
</svg>